<svg width="24" height="24" viewBox="0 0 24 24" fill="none" xmlns="http://www.w3.org/2000/svg">
<g clip-path="url(#clip0_9_47)">
<path d="M19.98 5.98688L19.4672 6.49969C19.2061 6.76076 18.852 6.90743 18.4828 6.90743C18.1136 6.90743 17.7595 6.76076 17.4984 6.49969C17.2374 6.23862 17.0907 5.88452 17.0907 5.51531C17.0907 5.1461 17.2374 4.79201 17.4984 4.53094L18.0112 4.01813L14.7431 0.75L10.6181 4.875L10.4306 5.44172L9.86391 5.62922L0.75 14.7431L4.02 18.0131L4.53281 17.5003C4.79388 17.2392 5.14798 17.0926 5.51719 17.0926C5.8864 17.0926 6.24049 17.2392 6.50156 17.5003C6.76263 17.7614 6.9093 18.1155 6.9093 18.4847C6.9093 18.8539 6.76263 19.208 6.50156 19.4691L5.98875 19.9819L9.25687 23.25L18.3694 14.1375L18.5569 13.5708L19.1236 13.3833L23.2486 9.25828L19.98 5.98688ZM10.2037 6.24141L11.2289 5.21625L12.7758 6.76312L11.7502 7.78828L10.2037 6.24141ZM12.2194 8.25703L13.245 7.23141L14.7694 8.75578L13.7438 9.78141L12.2194 8.25703ZM14.2144 10.252L15.24 9.22641L16.7644 10.7508L15.7406 11.7787L14.2144 10.252ZM17.7567 13.7939L16.2098 12.247L17.235 11.2214L18.7819 12.7683L17.7567 13.7939Z" fill="url(#paint0_linear_9_47)"/>
<path d="M21.9425 17.0948L21.7373 17.2999C21.6329 17.4043 21.4913 17.463 21.3436 17.463C21.1959 17.463 21.0542 17.4043 20.9498 17.2999C20.8454 17.1954 20.7867 17.0538 20.7867 16.9061C20.7867 16.7584 20.8454 16.6168 20.9498 16.5124L21.1549 16.3073L19.8476 15L18.1975 16.65L18.1225 16.8767L17.8958 16.9517L14.25 20.5973L15.5581 21.9053L15.7632 21.7001C15.8677 21.5957 16.0093 21.537 16.157 21.537C16.3047 21.537 16.4463 21.5957 16.5508 21.7001C16.6552 21.8046 16.7139 21.9462 16.7139 22.0939C16.7139 22.2416 16.6552 22.3832 16.5508 22.4876L16.3456 22.6928L17.653 24L21.2982 20.355L21.3732 20.1283L21.5999 20.0533L23.25 18.4033L21.9425 17.0948ZM18.0317 17.1966L18.4418 16.7865L19.0606 17.4053L18.6503 17.8153L18.0317 17.1966ZM18.838 18.0028L19.2483 17.5926L19.8581 18.2023L19.4478 18.6126L18.838 18.0028ZM19.6361 18.8008L20.0464 18.3906L20.6562 19.0003L20.2466 19.4115L19.6361 18.8008ZM21.0531 20.2176L20.4343 19.5988L20.8444 19.1886L21.4632 19.8073L21.0531 20.2176Z" fill="url(#paint1_linear_9_47)"/>
<path d="M7.69248 2.84475L7.48734 3.04988C7.38291 3.1543 7.24126 3.21297 7.09357 3.21297C6.94587 3.21297 6.80423 3.1543 6.69979 3.04988C6.59536 2.94545 6.53669 2.80381 6.53669 2.65613C6.53669 2.50844 6.59536 2.3668 6.69979 2.26238L6.90493 2.05725L5.5976 0.75L3.9475 2.4L3.87249 2.62669L3.64579 2.70169L0 6.34725L1.30808 7.65525L1.51322 7.45013C1.61766 7.3457 1.7593 7.28703 1.90699 7.28703C2.05469 7.28703 2.19633 7.3457 2.30077 7.45013C2.4052 7.55455 2.46388 7.69619 2.46388 7.84388C2.46388 7.99156 2.4052 8.1332 2.30077 8.23763L2.09563 8.44275L3.40296 9.75L7.04819 6.105L7.1232 5.87831L7.3499 5.80331L9 4.15331L7.69248 2.84475ZM3.78174 2.94656L4.19182 2.5365L4.81061 3.15525L4.40034 3.56531L3.78174 2.94656ZM4.58804 3.75281L4.99831 3.34256L5.6081 3.95231L5.19783 4.36256L4.58804 3.75281ZM5.38609 4.55081L5.79636 4.14056L6.40615 4.75031L5.99662 5.1615L5.38609 4.55081ZM6.80311 5.96756L6.18432 5.34881L6.59441 4.93856L7.2132 5.55731L6.80311 5.96756Z" fill="url(#paint2_linear_9_47)"/>
</g>
<defs>
<linearGradient id="paint0_linear_9_47" x1="11.9993" y1="0.75" x2="11.9993" y2="23.25" gradientUnits="userSpaceOnUse">
<stop offset="0.2" stop-color="#FF0000"/>
<stop offset="0.815" stop-color="#FF9900"/>
</linearGradient>
<linearGradient id="paint1_linear_9_47" x1="18.75" y1="15" x2="18.75" y2="24" gradientUnits="userSpaceOnUse">
<stop offset="0.2" stop-color="#FF0000"/>
<stop offset="0.815" stop-color="#FF9900"/>
</linearGradient>
<linearGradient id="paint2_linear_9_47" x1="4.5" y1="0.75" x2="4.5" y2="9.75" gradientUnits="userSpaceOnUse">
<stop offset="0.2" stop-color="#FF0000"/>
<stop offset="0.815" stop-color="#FF9900"/>
</linearGradient>
<clipPath id="clip0_9_47">
<rect width="24" height="24" fill="white"/>
</clipPath>
</defs>
</svg>
