<svg width="185" height="64" viewBox="0 0 185 64" fill="none" xmlns="http://www.w3.org/2000/svg">
<path d="M53.28 15.965L51.9125 17.3325C51.2163 18.0287 50.2721 18.4198 49.2875 18.4198C48.3029 18.4198 47.3587 18.0287 46.6625 17.3325C45.9663 16.6363 45.5752 15.6921 45.5752 14.7075C45.5752 13.7229 45.9663 12.7787 46.6625 12.0825L48.03 10.715L39.315 2L28.315 13L27.815 14.5112L26.3037 15.0112L2 39.315L10.72 48.035L12.0875 46.6675C12.7837 45.9713 13.7279 45.5802 14.7125 45.5802C15.6971 45.5802 16.6413 45.9713 17.3375 46.6675C18.0337 47.3637 18.4248 48.3079 18.4248 49.2925C18.4248 50.2771 18.0337 51.2213 17.3375 51.9175L15.97 53.285L24.685 62L48.985 37.7L49.485 36.1888L50.9963 35.6888L61.9963 24.6887L53.28 15.965ZM27.21 16.6437L29.9438 13.91L34.0687 18.035L31.3337 20.7687L27.21 16.6437ZM32.585 22.0187L35.32 19.2838L39.385 23.3487L36.65 26.0837L32.585 22.0187ZM37.905 27.3388L40.64 24.6038L44.705 28.6688L41.975 31.41L37.905 27.3388ZM47.3512 36.7837L43.2262 32.6587L45.96 29.9237L50.085 34.0488L47.3512 36.7837Z" fill="url(#paint0_linear_9_27)"/>
<path d="M58.5133 45.586L57.9662 46.133C57.6878 46.4115 57.31 46.5679 56.9162 46.5679C56.5223 46.5679 56.1446 46.4115 55.8661 46.133C55.5876 45.8545 55.4312 45.4768 55.4312 45.083C55.4312 44.6892 55.5876 44.3115 55.8661 44.033L56.4132 43.486L52.9269 40L48.5267 44.4L48.3266 45.0045L47.7221 45.2045L38 54.926L41.4882 58.414L42.0353 57.867C42.3137 57.5885 42.6915 57.4321 43.0853 57.4321C43.4792 57.4321 43.8569 57.5885 44.1354 57.867C44.4139 58.1455 44.5703 58.5232 44.5703 58.917C44.5703 59.3108 44.4139 59.6885 44.1354 59.967L43.5883 60.514L47.0746 64L56.7952 54.28L56.9952 53.6755L57.5997 53.4755L62 49.0755L58.5133 45.586ZM48.0846 45.8575L49.1782 44.764L50.8283 46.414L49.7342 47.5075L48.0846 45.8575ZM50.2348 48.0075L51.3288 46.9135L52.9549 48.5395L51.8609 49.6335L50.2348 48.0075ZM52.3629 50.1355L53.457 49.0415L55.0831 50.6675L53.991 51.764L52.3629 50.1355ZM56.1416 53.9135L54.4915 52.2635L55.5851 51.1695L57.2352 52.8195L56.1416 53.9135Z" fill="url(#paint1_linear_9_27)"/>
<path d="M20.5133 7.586L19.9662 8.133C19.6878 8.41148 19.31 8.56792 18.9162 8.56792C18.5223 8.56792 18.1446 8.41148 17.8661 8.133C17.5876 7.85452 17.4312 7.47683 17.4312 7.083C17.4312 6.68917 17.5876 6.31148 17.8661 6.033L18.4132 5.486L14.9269 2L10.5267 6.4L10.3266 7.0045L9.72211 7.2045L0 16.926L3.48822 20.414L4.03525 19.867C4.31375 19.5885 4.69147 19.4321 5.08532 19.4321C5.47917 19.4321 5.85689 19.5885 6.13538 19.867C6.41388 20.1455 6.57033 20.5232 6.57033 20.917C6.57033 21.3108 6.41388 21.6885 6.13538 21.967L5.58835 22.514L9.07457 26L18.7952 16.28L18.9952 15.6755L19.5997 15.4755L24 11.0755L20.5133 7.586ZM10.0846 7.8575L11.1782 6.764L12.8283 8.414L11.7342 9.5075L10.0846 7.8575ZM12.2348 10.0075L13.3288 8.9135L14.9549 10.5395L13.8609 11.6335L12.2348 10.0075ZM14.3629 12.1355L15.457 11.0415L17.0831 12.6675L15.991 13.764L14.3629 12.1355ZM18.1416 15.9135L16.4915 14.2635L17.5851 13.1695L19.2352 14.8195L18.1416 15.9135Z" fill="url(#paint2_linear_9_27)"/>
<path d="M88.992 39.968C88.992 40.048 88.952 40.16 88.872 40.304C88.792 40.448 88.736 40.56 88.704 40.64C88.496 41.008 88.176 41.392 87.744 41.792C87.312 42.192 86.912 42.52 86.544 42.776C85.792 43.304 85 43.648 84.168 43.808C83.336 43.968 82.472 44.048 81.576 44.048C79.832 44.048 78.344 43.688 77.112 42.968C75.88 42.232 74.936 41.216 74.28 39.92C73.64 38.608 73.32 37.096 73.32 35.384C73.32 33.688 73.632 32.16 74.256 30.8C74.88 29.44 75.8 28.36 77.016 27.56C78.248 26.744 79.752 26.336 81.528 26.336C82.328 26.336 83.008 26.432 83.568 26.624C84.128 26.816 84.76 27.04 85.464 27.296C85.8 27.408 86.136 27.496 86.472 27.56C86.808 27.608 87.152 27.648 87.504 27.68C87.52 28.032 87.544 28.392 87.576 28.76C87.608 29.112 87.648 29.472 87.696 29.84C87.728 30.144 87.784 30.456 87.864 30.776C87.944 31.096 87.984 31.416 87.984 31.736C87.984 32.04 87.872 32.264 87.648 32.408C87.44 32.552 87.2 32.624 86.928 32.624C86.48 32.624 86.168 32.44 85.992 32.072C85.944 31.944 85.912 31.808 85.896 31.664C85.88 31.504 85.856 31.368 85.824 31.256C85.712 30.744 85.512 30.192 85.224 29.6C84.952 28.992 84.624 28.512 84.24 28.16C83.936 27.888 83.52 27.648 82.992 27.44C82.464 27.216 81.992 27.104 81.576 27.104C81.176 27.104 80.8 27.192 80.448 27.368C80.112 27.544 79.784 27.76 79.464 28.016C78.776 28.592 78.232 29.28 77.832 30.08C77.432 30.88 77.152 31.736 76.992 32.648C76.832 33.544 76.752 34.424 76.752 35.288C76.752 35.864 76.784 36.44 76.848 37.016C76.928 37.576 77.048 38.136 77.208 38.696C77.432 39.448 77.752 40.16 78.168 40.832C78.6 41.488 79.128 42.024 79.752 42.44C80.392 42.84 81.128 43.04 81.96 43.04C83.144 43.04 84.216 42.744 85.176 42.152C86.152 41.56 86.96 40.784 87.6 39.824C87.696 39.664 87.792 39.528 87.888 39.416C88 39.288 88.16 39.224 88.368 39.224C88.576 39.224 88.728 39.304 88.824 39.464C88.936 39.624 88.992 39.792 88.992 39.968ZM96.9266 43.712C96.9266 43.968 96.7986 44.096 96.5426 44.096C96.0786 44.096 95.6066 44.072 95.1266 44.024C94.6466 43.992 94.1666 43.976 93.6866 43.976C93.2066 43.976 92.7186 43.992 92.2226 44.024C91.7426 44.072 91.2626 44.096 90.7826 44.096C90.6706 44.096 90.5906 44.056 90.5426 43.976C90.4946 43.88 90.4706 43.792 90.4706 43.712C90.4706 43.456 90.5906 43.328 90.8306 43.328C90.9906 43.328 91.1426 43.336 91.2866 43.352C91.4306 43.368 91.5746 43.376 91.7186 43.376C91.9106 43.376 92.0306 43.312 92.0786 43.184C92.1426 43.056 92.1746 42.912 92.1746 42.752V33.224C92.1746 33.064 92.1586 32.888 92.1266 32.696C92.0946 32.488 91.9666 32.384 91.7426 32.384C91.5346 32.384 91.3186 32.4 91.0946 32.432C90.8706 32.464 90.6466 32.48 90.4226 32.48C90.3266 32.48 90.2306 32.456 90.1346 32.408C90.0546 32.36 90.0146 32.28 90.0146 32.168C90.0146 31.96 90.1186 31.824 90.3266 31.76C90.5026 31.728 90.6866 31.704 90.8786 31.688C91.0866 31.656 91.2786 31.632 91.4546 31.616C92.0146 31.536 92.5586 31.44 93.0866 31.328C93.6306 31.2 94.1746 31.072 94.7186 30.944C94.7666 30.944 94.8146 30.944 94.8626 30.944C94.9106 30.928 94.9506 30.92 94.9826 30.92C95.2226 30.92 95.3426 31.016 95.3426 31.208C95.3426 33.128 95.3346 35.056 95.3186 36.992C95.3026 38.912 95.2946 40.832 95.2946 42.752C95.2946 43.04 95.3586 43.224 95.4866 43.304C95.6146 43.368 95.7746 43.392 95.9666 43.376C96.1746 43.36 96.3826 43.352 96.5906 43.352C96.8146 43.352 96.9266 43.472 96.9266 43.712ZM95.4146 27.224C95.4146 27.72 95.2306 28.152 94.8626 28.52C94.5106 28.888 94.0786 29.072 93.5666 29.072C93.0706 29.072 92.6386 28.888 92.2706 28.52C91.9026 28.152 91.7186 27.72 91.7186 27.224C91.7186 26.712 91.9026 26.28 92.2706 25.928C92.6386 25.56 93.0706 25.376 93.5666 25.376C94.0786 25.376 94.5106 25.56 94.8626 25.928C95.2306 26.28 95.4146 26.712 95.4146 27.224ZM112.257 43.664C112.257 43.92 112.129 44.048 111.873 44.048C111.409 44.048 110.937 44.032 110.457 44C109.993 43.984 109.529 43.976 109.065 43.976C108.617 43.976 108.161 43.984 107.697 44C107.233 44.032 106.769 44.048 106.305 44.048C106.193 44.048 106.113 44.008 106.065 43.928C106.017 43.832 105.993 43.736 105.993 43.64C105.993 43.4 106.121 43.28 106.377 43.28C106.521 43.28 106.665 43.288 106.809 43.304C106.953 43.304 107.097 43.304 107.241 43.304C107.481 43.304 107.601 43.2 107.601 42.992C107.601 41.648 107.601 40.304 107.601 38.96C107.617 37.616 107.625 36.272 107.625 34.928C107.625 34.496 107.585 34.048 107.505 33.584C107.441 33.12 107.281 32.728 107.025 32.408C106.785 32.088 106.385 31.928 105.825 31.928C105.473 31.928 105.105 32.056 104.721 32.312C104.353 32.568 104.017 32.872 103.713 33.224C103.425 33.576 103.217 33.904 103.089 34.208V42.704C103.089 42.848 103.105 42.984 103.137 43.112C103.185 43.24 103.297 43.304 103.473 43.304C103.601 43.304 103.729 43.304 103.857 43.304C104.001 43.288 104.137 43.28 104.265 43.28C104.345 43.28 104.425 43.312 104.505 43.376C104.585 43.44 104.625 43.512 104.625 43.592C104.625 43.896 104.497 44.048 104.241 44.048C103.793 44.048 103.345 44.032 102.897 44C102.465 43.952 102.017 43.928 101.553 43.928C101.073 43.928 100.585 43.952 100.089 44C99.6086 44.032 99.1206 44.048 98.6246 44.048C98.5126 44.048 98.4326 44.008 98.3846 43.928C98.3366 43.832 98.3126 43.736 98.3126 43.64C98.3126 43.4 98.4406 43.28 98.6966 43.28C98.8406 43.28 98.9846 43.288 99.1286 43.304C99.2726 43.304 99.4246 43.304 99.5846 43.304C99.8086 43.304 99.9366 43.256 99.9686 43.16C100.001 43.064 100.017 42.912 100.017 42.704V39.224C100.017 38.248 100.017 37.272 100.017 36.296C100.017 35.32 100.017 34.344 100.017 33.368C100.017 33.192 99.9926 33 99.9446 32.792C99.8966 32.568 99.7526 32.456 99.5126 32.456C99.3526 32.456 99.1926 32.464 99.0326 32.48C98.8886 32.496 98.7366 32.504 98.5766 32.504C98.4806 32.504 98.3686 32.488 98.2406 32.456C98.1286 32.408 98.0726 32.32 98.0726 32.192C98.0726 32.096 98.1046 32.024 98.1686 31.976C98.2326 31.928 98.3046 31.896 98.3846 31.88C98.5446 31.832 98.7126 31.8 98.8886 31.784C99.0646 31.768 99.2326 31.744 99.3926 31.712C99.8086 31.632 100.217 31.544 100.617 31.448C101.033 31.336 101.441 31.224 101.841 31.112C101.905 31.08 101.969 31.056 102.033 31.04C102.097 31.008 102.161 30.992 102.225 30.992C102.353 30.992 102.465 31.112 102.561 31.352C102.673 31.592 102.761 31.848 102.825 32.12C102.905 32.392 102.953 32.584 102.969 32.696C103.433 32.28 103.993 31.912 104.649 31.592C105.305 31.256 105.953 31.088 106.593 31.088C107.665 31.088 108.497 31.224 109.089 31.496C109.697 31.768 110.129 32.224 110.385 32.864C110.641 33.488 110.769 34.328 110.769 35.384C110.769 36.632 110.761 37.88 110.745 39.128C110.729 40.376 110.721 41.624 110.721 42.872C110.721 43.032 110.769 43.152 110.865 43.232C110.977 43.296 111.113 43.328 111.273 43.328C111.385 43.328 111.489 43.32 111.585 43.304C111.697 43.288 111.809 43.28 111.921 43.28C112.145 43.28 112.257 43.408 112.257 43.664ZM121.877 35.576C121.877 35.256 121.861 34.872 121.829 34.424C121.797 33.976 121.717 33.544 121.589 33.128C121.477 32.696 121.293 32.336 121.037 32.048C120.781 31.76 120.429 31.616 119.981 31.616C119.549 31.616 119.165 31.76 118.829 32.048C118.509 32.32 118.237 32.672 118.013 33.104C117.789 33.52 117.613 33.96 117.485 34.424C117.357 34.872 117.261 35.272 117.197 35.624C117.469 35.624 117.733 35.632 117.989 35.648C118.261 35.648 118.525 35.648 118.781 35.648C119.821 35.648 120.853 35.624 121.877 35.576ZM125.333 40.88C125.333 40.928 125.317 41 125.285 41.096C125.269 41.176 125.245 41.24 125.213 41.288C125.101 41.544 124.893 41.84 124.589 42.176C124.285 42.496 124.013 42.744 123.773 42.92C122.701 43.736 121.461 44.144 120.053 44.144C118.789 44.144 117.693 43.88 116.765 43.352C115.837 42.808 115.125 42.056 114.629 41.096C114.133 40.136 113.885 39.032 113.885 37.784C113.885 36.536 114.125 35.408 114.605 34.4C115.101 33.376 115.805 32.568 116.717 31.976C117.645 31.368 118.757 31.064 120.053 31.064C121.541 31.064 122.733 31.472 123.629 32.288C124.525 33.104 124.973 34.272 124.973 35.792C124.973 36.208 124.781 36.416 124.397 36.416C123.693 36.416 122.989 36.408 122.285 36.392C121.581 36.376 120.877 36.368 120.173 36.368C119.661 36.368 119.149 36.368 118.637 36.368C118.125 36.368 117.613 36.376 117.101 36.392C117.053 36.872 117.029 37.36 117.029 37.856C117.029 38.304 117.085 38.832 117.197 39.44C117.325 40.048 117.509 40.64 117.749 41.216C118.005 41.792 118.333 42.272 118.733 42.656C119.133 43.024 119.621 43.208 120.197 43.208C120.917 43.208 121.517 43.104 121.997 42.896C122.493 42.688 122.933 42.392 123.317 42.008C123.701 41.624 124.093 41.168 124.493 40.64C124.541 40.576 124.589 40.528 124.637 40.496C124.701 40.448 124.773 40.424 124.853 40.424C124.965 40.424 125.069 40.472 125.165 40.568C125.277 40.648 125.333 40.752 125.333 40.88ZM140.235 29.888C140.235 30.048 140.155 30.176 139.995 30.272C139.835 30.352 139.683 30.392 139.539 30.392C139.363 30.392 139.203 30.36 139.059 30.296C138.931 30.216 138.843 30.08 138.795 29.888C138.587 29.216 138.267 28.632 137.835 28.136C137.403 27.624 136.803 27.368 136.035 27.368H132.243V34.592C132.483 34.592 132.723 34.592 132.963 34.592C133.203 34.592 133.443 34.592 133.683 34.592C134.275 34.592 134.867 34.576 135.459 34.544C136.067 34.512 136.659 34.432 137.235 34.304C137.459 34.24 137.691 34.168 137.931 34.088C138.171 34.008 138.411 33.968 138.651 33.968C138.843 33.968 138.939 34.056 138.939 34.232C138.939 34.36 138.907 34.528 138.843 34.736C138.795 34.944 138.747 35.112 138.699 35.24C138.635 35.448 138.555 35.576 138.459 35.624C138.379 35.656 138.235 35.672 138.027 35.672C137.291 35.672 136.563 35.632 135.843 35.552C135.123 35.472 134.395 35.432 133.659 35.432C133.323 35.432 133.003 35.504 132.699 35.648C132.395 35.776 132.243 36.048 132.243 36.464V42.032C132.243 42.512 132.331 42.84 132.507 43.016C132.683 43.192 132.923 43.288 133.227 43.304C133.531 43.304 133.859 43.304 134.211 43.304C134.339 43.304 134.451 43.336 134.547 43.4C134.659 43.448 134.715 43.544 134.715 43.688C134.715 44.024 134.547 44.192 134.211 44.192C134.131 44.192 134.051 44.192 133.971 44.192C133.891 44.192 133.811 44.184 133.731 44.168C133.203 44.136 132.675 44.12 132.147 44.12C131.619 44.12 131.099 44.12 130.587 44.12C130.059 44.12 129.531 44.136 129.003 44.168C128.475 44.216 127.947 44.24 127.419 44.24C127.291 44.24 127.171 44.216 127.059 44.168C126.947 44.136 126.891 44.04 126.891 43.88C126.891 43.672 126.955 43.544 127.083 43.496C127.227 43.448 127.403 43.432 127.611 43.448C127.819 43.448 128.027 43.424 128.235 43.376C128.443 43.312 128.611 43.168 128.739 42.944C128.883 42.704 128.955 42.328 128.955 41.816V28.616C128.955 28.248 128.899 27.968 128.787 27.776C128.675 27.568 128.419 27.464 128.019 27.464C127.875 27.464 127.731 27.472 127.587 27.488C127.459 27.488 127.323 27.488 127.179 27.488C126.987 27.488 126.795 27.472 126.603 27.44C126.427 27.392 126.339 27.24 126.339 26.984C126.339 26.84 126.387 26.728 126.483 26.648C126.579 26.568 126.691 26.528 126.819 26.528C127.379 26.528 127.931 26.544 128.475 26.576C129.035 26.592 129.587 26.6 130.131 26.6C132.499 26.6 134.859 26.576 137.211 26.528C137.627 26.512 138.051 26.496 138.483 26.48C138.915 26.464 139.339 26.424 139.755 26.36C139.819 26.824 139.883 27.288 139.947 27.752C140.011 28.216 140.075 28.68 140.139 29.144C140.155 29.256 140.171 29.376 140.187 29.504C140.219 29.632 140.235 29.76 140.235 29.888ZM148.811 26.888C148.811 27.16 148.683 27.296 148.427 27.296C148.235 27.296 148.035 27.296 147.827 27.296C147.635 27.28 147.443 27.272 147.251 27.272C147.091 27.272 146.979 27.344 146.915 27.488C146.851 27.616 146.819 27.752 146.819 27.896C146.819 28.456 146.811 29.024 146.795 29.6C146.795 30.16 146.795 30.72 146.795 31.28C146.795 33.04 146.795 34.808 146.795 36.584C146.811 38.344 146.819 40.104 146.819 41.864C146.819 41.976 146.811 42.152 146.795 42.392C146.779 42.632 146.795 42.856 146.843 43.064C146.907 43.256 147.027 43.352 147.203 43.352C147.411 43.352 147.619 43.344 147.827 43.328C148.035 43.312 148.243 43.304 148.451 43.304C148.563 43.304 148.643 43.352 148.691 43.448C148.739 43.528 148.763 43.624 148.763 43.736C148.763 43.848 148.723 43.944 148.643 44.024C148.579 44.12 148.483 44.168 148.355 44.168C147.811 44.168 147.267 44.16 146.723 44.144C146.195 44.128 145.659 44.12 145.115 44.12C144.571 44.12 144.027 44.128 143.483 44.144C142.939 44.16 142.395 44.168 141.851 44.168C141.691 44.168 141.587 44.136 141.539 44.072C141.491 44.008 141.467 43.904 141.467 43.76C141.467 43.632 141.491 43.528 141.539 43.448C141.603 43.352 141.699 43.304 141.827 43.304C142.003 43.304 142.179 43.312 142.355 43.328C142.531 43.344 142.699 43.352 142.859 43.352C143.083 43.352 143.235 43.28 143.315 43.136C143.395 42.992 143.443 42.824 143.459 42.632C143.475 42.424 143.483 42.248 143.483 42.104L143.507 28.328C143.507 28.184 143.491 27.976 143.459 27.704C143.427 27.416 143.315 27.264 143.123 27.248C143.075 27.248 143.027 27.248 142.979 27.248C142.947 27.248 142.907 27.248 142.859 27.248C142.699 27.248 142.539 27.256 142.379 27.272C142.235 27.288 142.083 27.296 141.923 27.296C141.619 27.296 141.467 27.144 141.467 26.84C141.467 26.728 141.499 26.632 141.563 26.552C141.643 26.472 141.739 26.432 141.851 26.432C142.539 26.432 143.219 26.448 143.891 26.48C144.579 26.512 145.267 26.528 145.955 26.528C146.371 26.528 146.787 26.512 147.203 26.48C147.635 26.448 148.059 26.432 148.475 26.432C148.603 26.432 148.691 26.48 148.739 26.576C148.787 26.672 148.811 26.776 148.811 26.888ZM161.557 36.872C161.109 35.512 160.645 34.16 160.165 32.816C159.701 31.472 159.253 30.12 158.821 28.76C158.357 30.12 157.893 31.472 157.429 32.816C156.981 34.16 156.525 35.512 156.061 36.872H161.557ZM168.757 43.76C168.757 44 168.605 44.12 168.301 44.12C168.205 44.12 168.109 44.12 168.013 44.12C167.917 44.12 167.813 44.112 167.701 44.096C167.301 44.064 166.885 44.048 166.453 44.048C166.037 44.048 165.621 44.048 165.205 44.048C164.677 44.048 164.149 44.048 163.621 44.048C163.093 44.048 162.557 44.064 162.013 44.096C161.949 44.112 161.885 44.12 161.821 44.12C161.757 44.12 161.693 44.12 161.629 44.12C161.405 44.12 161.293 44.008 161.293 43.784C161.293 43.592 161.357 43.48 161.485 43.448C161.629 43.4 161.789 43.384 161.965 43.4C162.141 43.416 162.285 43.424 162.397 43.424C162.685 43.424 162.893 43.368 163.021 43.256C163.165 43.128 163.237 42.912 163.237 42.608C163.237 42.432 163.181 42.128 163.069 41.696C162.957 41.248 162.821 40.76 162.661 40.232C162.501 39.704 162.341 39.216 162.181 38.768C162.037 38.304 161.933 37.976 161.869 37.784H155.749C155.717 37.88 155.645 38.096 155.533 38.432C155.421 38.768 155.285 39.16 155.125 39.608C154.981 40.056 154.837 40.496 154.693 40.928C154.549 41.36 154.429 41.736 154.333 42.056C154.237 42.36 154.189 42.544 154.189 42.608C154.189 42.912 154.269 43.12 154.429 43.232C154.589 43.344 154.789 43.408 155.029 43.424C155.269 43.424 155.501 43.424 155.725 43.424C155.805 43.424 155.869 43.48 155.917 43.592C155.965 43.688 155.989 43.776 155.989 43.856C155.989 43.952 155.949 44.024 155.869 44.072C155.805 44.12 155.733 44.144 155.653 44.144C155.125 44.144 154.597 44.128 154.069 44.096C153.557 44.08 153.045 44.072 152.533 44.072C152.277 44.072 152.021 44.08 151.765 44.096C151.509 44.112 151.245 44.12 150.973 44.12C150.893 44.12 150.813 44.088 150.733 44.024C150.653 43.96 150.613 43.888 150.613 43.808C150.613 43.632 150.677 43.52 150.805 43.472C150.933 43.424 151.077 43.408 151.237 43.424C151.413 43.424 151.557 43.424 151.669 43.424C151.877 43.424 152.045 43.344 152.173 43.184C152.317 43.008 152.421 42.84 152.485 42.68C153.429 40.312 154.325 37.936 155.173 35.552C156.021 33.152 156.845 30.744 157.645 28.328C157.709 28.152 157.789 27.904 157.885 27.584C157.981 27.264 158.029 27.024 158.029 26.864C158.029 26.768 158.005 26.688 157.957 26.624C157.925 26.544 157.909 26.472 157.909 26.408C157.909 26.344 157.989 26.296 158.149 26.264C158.309 26.232 158.477 26.208 158.653 26.192C158.829 26.176 158.941 26.168 158.989 26.168C159.325 26.12 159.653 26.072 159.973 26.024C160.309 25.976 160.645 25.936 160.981 25.904L166.861 42.488C166.989 42.872 167.157 43.12 167.365 43.232C167.589 43.328 167.885 43.376 168.253 43.376C168.397 43.376 168.517 43.4 168.613 43.448C168.709 43.48 168.757 43.584 168.757 43.76ZM180.191 30.824C180.191 30.152 180.079 29.536 179.855 28.976C179.631 28.416 179.279 27.976 178.799 27.656C178.335 27.32 177.743 27.152 177.023 27.152C176.863 27.152 176.703 27.152 176.543 27.152C176.383 27.136 176.223 27.128 176.063 27.128C175.663 27.128 175.407 27.168 175.295 27.248C175.183 27.312 175.127 27.568 175.127 28.016C175.127 29.104 175.127 30.2 175.127 31.304C175.127 32.408 175.135 33.504 175.151 34.592C175.391 34.8 175.671 34.936 175.991 35C176.311 35.048 176.623 35.072 176.927 35.072C177.759 35.072 178.407 34.872 178.871 34.472C179.351 34.056 179.687 33.52 179.879 32.864C180.087 32.208 180.191 31.528 180.191 30.824ZM183.647 30.752C183.647 31.808 183.463 32.672 183.095 33.344C182.727 34 182.223 34.512 181.583 34.88C180.959 35.248 180.239 35.504 179.423 35.648C178.623 35.776 177.775 35.84 176.879 35.84C176.591 35.84 176.303 35.824 176.015 35.792C175.727 35.76 175.439 35.728 175.151 35.696C175.151 36.864 175.151 38.032 175.151 39.2C175.151 40.352 175.151 41.512 175.151 42.68C175.151 42.808 175.175 42.944 175.223 43.088C175.287 43.232 175.399 43.304 175.559 43.304C175.767 43.304 175.967 43.296 176.159 43.28C176.367 43.264 176.575 43.256 176.783 43.256C176.895 43.256 176.983 43.32 177.047 43.448C177.127 43.576 177.167 43.68 177.167 43.76C177.167 43.872 177.127 43.96 177.047 44.024C176.967 44.088 176.879 44.12 176.783 44.12C176.575 44.12 176.367 44.112 176.159 44.096C175.951 44.08 175.735 44.064 175.511 44.048C175.191 44.016 174.863 44 174.527 44C174.191 44 173.863 44 173.543 44C172.775 44 172.015 44.024 171.263 44.072C171.087 44.088 170.911 44.096 170.735 44.096C170.575 44.112 170.407 44.12 170.231 44.12C170.071 44.12 169.967 44.072 169.919 43.976C169.871 43.864 169.847 43.752 169.847 43.64C169.847 43.512 169.895 43.424 169.991 43.376C170.087 43.312 170.191 43.28 170.303 43.28C170.447 43.28 170.591 43.288 170.735 43.304C170.879 43.32 171.031 43.328 171.191 43.328C171.223 43.328 171.263 43.328 171.311 43.328C171.359 43.328 171.399 43.328 171.431 43.328C171.655 43.312 171.783 43.184 171.815 42.944C171.863 42.704 171.887 42.504 171.887 42.344V28.208C171.887 28.08 171.871 27.896 171.839 27.656C171.807 27.4 171.695 27.264 171.503 27.248C171.455 27.248 171.407 27.248 171.359 27.248C171.327 27.248 171.295 27.248 171.263 27.248C171.103 27.248 170.943 27.256 170.783 27.272C170.623 27.288 170.463 27.296 170.303 27.296C170.191 27.296 170.079 27.248 169.967 27.152C169.871 27.056 169.823 26.952 169.823 26.84C169.823 26.728 169.871 26.624 169.967 26.528C170.079 26.432 170.191 26.384 170.303 26.384C170.479 26.384 170.655 26.392 170.831 26.408C171.023 26.424 171.207 26.44 171.383 26.456C171.751 26.472 172.111 26.488 172.463 26.504C172.831 26.504 173.191 26.504 173.543 26.504C174.279 26.504 175.007 26.488 175.727 26.456C176.463 26.408 177.199 26.384 177.935 26.384C178.639 26.384 179.327 26.464 179.999 26.624C180.687 26.768 181.303 27.008 181.847 27.344C182.391 27.68 182.823 28.128 183.143 28.688C183.479 29.248 183.647 29.936 183.647 30.752Z" fill="white"/>
<defs>
<linearGradient id="paint0_linear_9_27" x1="31.9981" y1="2" x2="31.9981" y2="62" gradientUnits="userSpaceOnUse">
<stop offset="0.2" stop-color="#FF0000"/>
<stop offset="0.815" stop-color="#FF9900"/>
</linearGradient>
<linearGradient id="paint1_linear_9_27" x1="50" y1="40" x2="50" y2="64" gradientUnits="userSpaceOnUse">
<stop offset="0.2" stop-color="#FF0000"/>
<stop offset="0.815" stop-color="#FF9900"/>
</linearGradient>
<linearGradient id="paint2_linear_9_27" x1="12" y1="2" x2="12" y2="26" gradientUnits="userSpaceOnUse">
<stop offset="0.2" stop-color="#FF0000"/>
<stop offset="0.815" stop-color="#FF9900"/>
</linearGradient>
</defs>
</svg>
